<?xml version="1.0" encoding="UTF-8"?>
<svg version="1.1" xmlns="http://www.w3.org/2000/svg" width="512" height="512">
<path d="M0 0 C8.61576474 5.41882049 14.41949215 12.43654068 17.10546875 22.32421875 C18.71795493 35.73671952 16.63293084 46.71746336 8.29296875 57.57421875 C5.06198559 61.37608991 1.6214792 64.91695372 -1.95703125 68.390625 C-4.50974781 70.93819495 -6.82989261 73.65719012 -9.1796875 76.390625 C-11.39500505 78.88853431 -13.76351295 81.20446864 -16.14453125 83.54296875 C-17.97695612 85.40811549 -19.6880626 87.34349621 -21.39453125 89.32421875 C-24.17762321 92.55459334 -27.10446636 95.56001263 -30.1484375 98.54296875 C-31.97034052 100.40155438 -33.64890377 102.33957864 -35.33203125 104.32421875 C-43.01220183 113.08441331 -43.01220183 113.08441331 -46.89453125 115.32421875 C-48.86949607 114.97938362 -50.84675901 114.63320517 -52.796875 114.16796875 C-56.16242093 114.41866118 -57.57699233 116.28653843 -59.89453125 118.63671875 C-63.82142367 123.3955799 -64.3162952 126.02053521 -63.80078125 131.9765625 C-63.98863973 136.68085204 -67.69551718 139.21249719 -70.89453125 142.32421875 C-72.50409652 144.02671504 -74.09341516 145.74695734 -75.68310547 147.46801758 C-77.49648709 149.4293947 -79.32081375 151.38001702 -81.1484375 153.328125 C-84.73660475 157.15444906 -88.31653517 160.98838538 -91.89453125 164.82421875 C-93.06115728 166.07425667 -94.22782403 167.3242566 -95.39453125 168.57421875 C-95.97203125 169.19296875 -96.54953125 169.81171875 -97.14453125 170.44921875 C-98.89453125 172.32421875 -100.64453125 174.19921875 -102.39453125 176.07421875 C-102.97195068 176.69288818 -103.54937012 177.31155762 -104.14428711 177.94897461 C-105.31174439 179.19981006 -106.47922488 180.45062384 -107.64672852 181.70141602 C-110.55148899 184.81345696 -113.45585377 187.92586527 -116.359375 191.0390625 C-122.99166052 198.14935058 -129.63442827 205.24964187 -136.28662109 212.34130859 C-142.25545242 218.70589771 -148.20938986 225.08431115 -154.16064453 231.46533203 C-157.07116776 234.58568178 -159.98291412 237.70488977 -162.89453125 240.82421875 C-164.06120371 242.07421334 -165.22787038 243.32421334 -166.39453125 244.57421875 C-168.72786458 247.07421875 -171.06119792 249.57421875 -173.39453125 252.07421875 C-173.97195068 252.69288818 -174.54937012 253.31155762 -175.14428711 253.94897461 C-176.31174439 255.19981006 -177.47922488 256.45062384 -178.64672852 257.70141602 C-181.55148899 260.81345696 -184.45585377 263.92586527 -187.359375 267.0390625 C-193.99166052 274.14935058 -200.63442827 281.24964187 -207.28662109 288.34130859 C-213.25545242 294.70589771 -219.20938986 301.08431115 -225.16064453 307.46533203 C-228.07116776 310.58568178 -230.98291412 313.70488977 -233.89453125 316.82421875 C-235.06120371 318.07421334 -236.22787038 319.32421334 -237.39453125 320.57421875 C-239.72786458 323.07421875 -242.06119792 325.57421875 -244.39453125 328.07421875 C-244.97195068 328.69288818 -245.54937012 329.31155762 -246.14428711 329.94897461 C-247.31174439 331.19981006 -248.47922488 332.45062384 -249.64672852 333.70141602 C-252.55148899 336.81345696 -255.45585377 339.92586527 -258.359375 343.0390625 C-264.36284381 349.47521374 -270.37306657 355.90489759 -276.39453125 362.32421875 C-280.68908954 366.90282482 -284.98246195 371.48250524 -289.265625 376.07177734 C-290.43043585 377.31863083 -291.59709087 378.56376415 -292.765625 379.80712891 C-295.61818867 382.84884395 -298.4276966 385.91509837 -301.16796875 389.05859375 C-310.95703735 400.18361012 -321.38827262 408.19362307 -335.89453125 412.32421875 C-336.50828613 412.50073975 -337.12204102 412.67726074 -337.75439453 412.85913086 C-340.05122766 413.35827153 -342.09272057 413.4377445 -344.44140625 413.421875 C-345.28574219 413.41865234 -346.13007813 413.41542969 -347 413.41210938 C-347.87269531 413.40373047 -348.74539063 413.39535156 -349.64453125 413.38671875 C-350.53269531 413.38220703 -351.42085937 413.37769531 -352.3359375 413.37304688 C-354.52220454 413.36129275 -356.70833304 413.34486124 -358.89453125 413.32421875 C-358.41306641 414.48824219 -358.41306641 414.48824219 -357.921875 415.67578125 C-353.76142926 430.45090034 -356.68293156 446.91424679 -363.43359375 460.3984375 C-371.43340965 473.99054177 -384.52423509 484.56822655 -399.8046875 488.921875 C-403.54243541 489.6414788 -407.13178999 490.05297101 -410.89453125 489.32421875 C-412.07015625 488.24140625 -412.07015625 488.24140625 -413.26953125 487.13671875 C-415.73067502 484.99342193 -415.73067502 484.99342193 -418.5 485.7265625 C-420.43787142 486.28206857 -422.36390133 486.88112069 -424.2734375 487.52734375 C-426.89453125 488.32421875 -426.89453125 488.32421875 -430.89453125 488.32421875 C-430.79140625 489.23171875 -430.68828125 490.13921875 -430.58203125 491.07421875 C-430.89453125 494.32421875 -430.89453125 494.32421875 -432.84716797 496.35253906 C-436.74100863 498.87189951 -440.50821172 499.94919102 -444.96484375 501.12109375 C-445.84171844 501.35959045 -446.71859314 501.59808716 -447.62203979 501.84381104 C-449.4745685 502.3439142 -451.32880001 502.83774676 -453.18457031 503.32568359 C-455.99453433 504.06761863 -458.79593341 504.83697885 -461.59765625 505.609375 C-483.72198746 511.58898396 -483.72198746 511.58898396 -489.83496094 508.27099609 C-492.69796641 506.02457412 -494.69135238 503.98344756 -495.13981628 500.32113647 C-495.42279294 491.23520646 -493.06846403 482.97156829 -490.6953125 474.30078125 C-490.25789204 472.66639314 -489.82148429 471.03173369 -489.3860321 469.39682007 C-488.47393019 465.98387491 -487.5527256 462.57357024 -486.62426758 459.16503906 C-485.44463417 454.83322223 -484.28326774 450.49677833 -483.12821674 446.15834999 C-482.22875638 442.7849913 -481.32184586 439.41367125 -480.4125576 436.04294968 C-479.98234561 434.44649254 -479.55380804 432.84958307 -479.12709999 431.25218582 C-473.58333869 410.55800285 -466.96750098 391.28747034 -448.20703125 378.94921875 C-434.21913723 371.41895968 -416.81609096 367.96729134 -401.24609375 372.3515625 C-400.47007812 372.67253906 -399.6940625 372.99351562 -398.89453125 373.32421875 C-398.9409375 372.10347656 -398.98734375 370.88273437 -399.03515625 369.625 C-399.53167186 351.09533941 -395.02672164 336.72542705 -382.26953125 322.88671875 C-378.86944388 319.30639752 -375.39504002 315.8057717 -371.89453125 312.32421875 C-372.74273437 311.8859375 -373.5909375 311.44765625 -374.46484375 310.99609375 C-401.15517586 296.74818906 -419.89667444 272.53853197 -428.859375 243.8125 C-430.78712806 237.31633592 -432.56507158 231.16373012 -431.89453125 224.32421875 C-430.18840668 221.31818974 -428.81725746 220.27270289 -425.89453125 218.32421875 C-425.33701324 215.11302544 -425.33701324 215.11302544 -425.39453125 211.44921875 C-425.36359375 210.21429688 -425.33265625 208.979375 -425.30078125 207.70703125 C-425.57504126 204.16008192 -425.57504126 204.16008192 -428.36328125 202.00390625 C-429.61625 201.17246094 -429.61625 201.17246094 -430.89453125 200.32421875 C-433.67897353 194.75533419 -431.30670656 187.88555975 -429.76953125 182.19921875 C-429.54579834 181.36390625 -429.32206543 180.52859375 -429.09155273 179.66796875 C-427.07937352 172.45933498 -424.37064684 165.96528868 -420.89453125 159.32421875 C-420.42144531 158.37160156 -419.94835937 157.41898438 -419.4609375 156.4375 C-416.00487692 149.72206521 -411.81180045 144.03839345 -406.89453125 138.32421875 C-406.20488281 137.50050781 -405.51523437 136.67679688 -404.8046875 135.828125 C-386.71479416 114.85955062 -359.65202083 100.58248618 -331.89453125 98.32421875 C-300.10966873 96.80881082 -271.74146633 103.82089603 -246.89453125 124.32421875 C-246.09660156 124.97003906 -245.29867187 125.61585938 -244.4765625 126.28125 C-231.57291322 137.18605516 -222.90842341 151.66799508 -214.89453125 166.32421875 C-214.28532837 165.7526001 -214.28532837 165.7526001 -213.66381836 165.16943359 C-206.24861912 158.21255291 -198.83037951 151.25903129 -191.39453125 144.32421875 C-186.22047354 139.49873632 -181.05449688 134.66476684 -175.89453125 129.82421875 C-168.85826371 123.22393923 -161.80862048 116.63813518 -154.75341797 110.05810547 C-151.63306822 107.14758224 -148.51386023 104.23583588 -145.39453125 101.32421875 C-144.14453666 100.15754629 -142.89453666 98.99087962 -141.64453125 97.82421875 C-141.02578125 97.24671875 -140.40703125 96.66921875 -139.76953125 96.07421875 C-134.14453126 90.82421876 -134.14453126 90.82421876 -132.26977539 89.07446289 C-131.01893994 87.90700561 -129.76812616 86.73952512 -128.51733398 85.57202148 C-125.40529304 82.66726101 -122.29288473 79.76289623 -119.1796875 76.859375 C-112.74353634 70.85590627 -106.31382835 64.84570901 -99.89453125 58.82421875 C-92.85823733 52.22396725 -85.80862058 45.63813526 -78.75341797 39.05810547 C-76.25846003 36.73091985 -73.76420066 34.4029867 -71.27026367 32.07470703 C-70.02480911 30.91241246 -68.77888177 29.75062426 -67.5324707 28.58935547 C-64.32191427 25.59698403 -61.12070128 22.59547251 -57.93359375 19.578125 C-42.12731768 4.63789256 -22.90121074 -11.2338125 0 0 Z " fill="#010101" transform="translate(494.89453125,2.67578125)"/>
<path d="M0 0 C4.66254877 2.73984825 7.56741871 6.63369788 9.6875 11.5625 C11.15196781 18.64827116 9.3564079 25.44155391 5.6875 31.5625 C2.75868213 35.21194089 -0.42243473 38.5657776 -3.69580078 41.90136719 C-6.55854212 44.84278852 -9.33321032 47.86645163 -12.125 50.875 C-13.31840915 52.15290553 -14.51242478 53.43024493 -15.70703125 54.70703125 C-19.81948296 59.10394328 -23.92787222 63.5046416 -28.03320312 67.90820312 C-31.1048996 71.20203358 -34.18286871 74.48971652 -37.26953125 77.76953125 C-37.91470703 78.45660156 -38.55988281 79.14367187 -39.22460938 79.8515625 C-40.46751846 81.17494771 -41.71223861 82.49663491 -42.95898438 83.81640625 C-47.12825377 87.977422 -47.12825377 87.977422 -48.4375 93.4375 C-48.50284341 96.41408069 -48.50284341 96.41408069 -47.53515625 98.39453125 C-47.3125 100.5625 -47.3125 100.5625 -49.05078125 103.39453125 C-51.72652968 106.49255257 -54.05627671 109.08051458 -57.3125 111.5625 C-59.75 111.59765625 -59.75 111.59765625 -62.125 110.9375 C-64.61907139 110.19873622 -64.61907139 110.19873622 -67.3125 110.5625 C-72.40339343 113.92261452 -76.3581764 118.9807225 -80.3125 123.5625 C-81.01761719 124.35527344 -81.72273437 125.14804688 -82.44921875 125.96484375 C-83.56848144 127.23501826 -84.67746893 128.51435997 -85.7734375 129.8046875 C-87.91905063 132.25526087 -90.24375414 134.50388769 -92.56640625 136.78515625 C-94.37727643 138.62843574 -96.06571354 140.54072799 -97.75 142.5 C-100.78929651 146.02884763 -104.02266847 149.29255027 -107.33984375 152.55859375 C-109.88587829 155.14496151 -112.23271557 157.8778528 -114.59765625 160.62890625 C-116.8129738 163.12681556 -119.1814817 165.44274989 -121.5625 167.78125 C-123.39492487 169.64639674 -125.10603135 171.58177746 -126.8125 173.5625 C-129.59489332 176.79206367 -132.52269429 179.79572653 -135.5625 182.78125 C-137.39492487 184.64639674 -139.10603135 186.58177746 -140.8125 188.5625 C-143.59489332 191.79206367 -146.52269429 194.79572653 -149.5625 197.78125 C-151.39492487 199.64639674 -153.10603135 201.58177746 -154.8125 203.5625 C-157.0580794 206.16897609 -159.35801512 208.65184521 -161.8125 211.0625 C-164.24639732 213.45303167 -166.52605559 215.91296262 -168.75 218.5 C-171.78929651 222.02884763 -175.02266847 225.29255027 -178.33984375 228.55859375 C-180.88587829 231.14496151 -183.23271557 233.8778528 -185.59765625 236.62890625 C-187.8129738 239.12681556 -190.1814817 241.44274989 -192.5625 243.78125 C-194.39492487 245.64639674 -196.10603135 247.58177746 -197.8125 249.5625 C-200.59489332 252.79206367 -203.52269429 255.79572653 -206.5625 258.78125 C-208.39492487 260.64639674 -210.10603135 262.58177746 -211.8125 264.5625 C-214.59489332 267.79206367 -217.52269429 270.79572653 -220.5625 273.78125 C-222.39492487 275.64639674 -224.10603135 277.58177746 -225.8125 279.5625 C-228.0580794 282.16897609 -230.35801512 284.65184521 -232.8125 287.0625 C-235.24639732 289.45303167 -237.52605559 291.91296262 -239.75 294.5 C-242.78929651 298.02884763 -246.02266847 301.29255027 -249.33984375 304.55859375 C-251.88587829 307.14496151 -254.23271557 309.8778528 -256.59765625 312.62890625 C-258.80931322 315.12268803 -261.17355737 317.43504398 -263.55078125 319.76953125 C-266.06675761 322.3301369 -268.3911081 325.04374025 -270.734375 327.76171875 C-272.50899815 329.7867219 -274.37026935 331.69795857 -276.3125 333.5625 C-279.8872899 332.0444272 -282.17061724 329.94675289 -284.89746094 327.20458984 C-286.24840851 325.85341568 -286.24840851 325.85341568 -287.62664795 324.47494507 C-288.60016481 323.49121592 -289.57357125 322.5073775 -290.546875 321.5234375 C-291.54963161 320.51694872 -292.55283222 319.51090211 -293.55645752 318.50527954 C-296.19123813 315.86287853 -298.81995611 313.21452572 -301.44744873 310.56488037 C-304.13189688 307.85993948 -306.82204622 305.16068179 -309.51171875 302.4609375 C-314.78423618 297.16699826 -320.05036057 291.86675717 -325.3125 286.5625 C-321.88108401 279.35652641 -315.2119065 274.40584945 -309.24609375 269.27734375 C-306.74818444 267.0620262 -304.43225011 264.6935183 -302.09375 262.3125 C-299.59353815 259.85615151 -296.93569484 257.59940632 -294.28125 255.3125 C-292.38226929 253.62451714 -290.59244012 251.87480266 -288.8125 250.0625 C-285.77417583 246.96893357 -282.5648468 244.14144493 -279.28125 241.3125 C-277.38226929 239.62451714 -275.59244012 237.87480266 -273.8125 236.0625 C-271.42196833 233.62860268 -268.96203738 231.34894441 -266.375 229.125 C-263.56673653 226.70632221 -260.91279407 224.20350317 -258.3125 221.5625 C-255.0909145 218.29047872 -251.72657855 215.26933945 -248.24609375 212.27734375 C-245.74818444 210.0620262 -243.43225011 207.6935183 -241.09375 205.3125 C-238.59353815 202.85615151 -235.93569484 200.59940632 -233.28125 198.3125 C-231.38226929 196.62451714 -229.59244012 194.87480266 -227.8125 193.0625 C-225.42196833 190.62860268 -222.96203738 188.34894441 -220.375 186.125 C-217.56673653 183.70632221 -214.91279407 181.20350317 -212.3125 178.5625 C-209.0909145 175.29047872 -205.72657855 172.26933945 -202.24609375 169.27734375 C-199.74818444 167.0620262 -197.43225011 164.6935183 -195.09375 162.3125 C-192.59353815 159.85615151 -189.93569484 157.59940632 -187.28125 155.3125 C-185.38226929 153.62451714 -183.59244012 151.87480266 -181.8125 150.0625 C-178.77417583 146.96893357 -175.5648468 144.14144493 -172.28125 141.3125 C-170.38226929 139.62451714 -168.59244012 137.87480266 -166.8125 136.0625 C-163.77417583 132.96893357 -160.5648468 130.14144493 -157.28125 127.3125 C-155.38226929 125.62451714 -153.59244012 123.87480266 -151.8125 122.0625 C-149.42196833 119.62860268 -146.96203738 117.34894441 -144.375 115.125 C-141.56673653 112.70632221 -138.91279407 110.20350317 -136.3125 107.5625 C-133.0909145 104.29047872 -129.72657855 101.26933945 -126.24609375 98.27734375 C-123.74818444 96.0620262 -121.43225011 93.6935183 -119.09375 91.3125 C-116.59353815 88.85615151 -113.93569484 86.59940632 -111.28125 84.3125 C-109.38226929 82.62451714 -107.59244012 80.87480266 -105.8125 79.0625 C-102.77417583 75.96893357 -99.5648468 73.14144493 -96.28125 70.3125 C-94.38226929 68.62451714 -92.59244012 66.87480266 -90.8125 65.0625 C-87.77417583 61.96893357 -84.5648468 59.14144493 -81.28125 56.3125 C-79.38226929 54.62451714 -77.59244012 52.87480266 -75.8125 51.0625 C-73.42196833 48.62860268 -70.96203738 46.34894441 -68.375 44.125 C-65.56673653 41.70632221 -62.91279407 39.20350317 -60.3125 36.5625 C-57.0909145 33.29047872 -53.72657855 30.26933945 -50.24609375 27.27734375 C-48.35755403 25.60245701 -46.58094352 23.86302413 -44.8125 22.0625 C-41.82863358 19.03148445 -38.70952021 16.22389739 -35.48046875 13.45703125 C-33.91460823 12.08866665 -32.37892442 10.68550476 -30.86328125 9.26171875 C-21.79825124 0.77973814 -12.70746837 -5.272506 0 0 Z " fill="#6E6470" transform="translate(487.3125,16.4375)"/>
<path d="M0 0 C1.09199707 0.00314209 1.09199707 0.00314209 2.20605469 0.00634766 C13.73011704 0.07467214 24.16166431 1.02514234 34.875 5.5 C35.59526367 5.78939453 36.31552734 6.07878906 37.05761719 6.37695312 C59.71848472 15.65402275 76.56985738 31.95534318 88.25 53.25 C88.59651611 53.87632324 88.94303223 54.50264648 89.30004883 55.14794922 C91.29105786 58.90424969 92.83350347 62.21400089 92.875 66.5 C91.28515625 68.80859375 91.28515625 68.80859375 88.9375 70.9375 C87.68839844 72.09378906 87.68839844 72.09378906 86.4140625 73.2734375 C85.57617188 74.00820312 84.73828125 74.74296875 83.875 75.5 C83.18148437 76.11101562 82.48796875 76.72203125 81.7734375 77.3515625 C80.46714101 78.4913192 79.15592605 79.62546341 77.83984375 80.75390625 C75.06075486 83.2235936 72.48639504 85.87903322 69.87890625 88.52734375 C67.29253849 91.07337829 64.5596472 93.42021557 61.80859375 95.78515625 C59.31068444 98.0004738 56.99475011 100.3689817 54.65625 102.75 C52.15603815 105.20634849 49.49819484 107.46309368 46.84375 109.75 C44.94476929 111.43798286 43.15494012 113.18769734 41.375 115 C38.33667583 118.09356643 35.1273468 120.92105507 31.84375 123.75 C29.94476929 125.43798286 28.15494012 127.18769734 26.375 129 C23.33667583 132.09356643 20.1273468 134.92105507 16.84375 137.75 C14.94476929 139.43798286 13.15494012 141.18769734 11.375 143 C8.98446833 145.43389732 6.52453738 147.71355559 3.9375 149.9375 C0.49078784 152.90605556 -2.71610859 156.04079104 -5.875 159.3125 C-7.81085037 161.19457675 -9.78584254 162.9659874 -11.82421875 164.734375 C-16.30470907 168.62611955 -20.62710502 172.67167395 -24.9375 176.75 C-25.68708984 177.45640625 -26.43667969 178.1628125 -27.20898438 178.890625 C-30.21555061 181.72792075 -33.214818 184.56345867 -36.125 187.5 C-41.64081398 186.17449432 -45.96834258 184.15324551 -50.75 181.125 C-51.78942749 180.46733643 -51.78942749 180.46733643 -52.84985352 179.79638672 C-64.41240187 172.25231082 -73.42139354 162.9301478 -81.125 151.5 C-81.67671875 150.70335937 -82.2284375 149.90671875 -82.796875 149.0859375 C-89.75335788 138.3643479 -93.29630677 125.85068645 -96.16796875 113.51171875 C-97.10117093 110.57498863 -97.67817941 109.29894778 -100.125 107.5 C-101.45360925 107.14830932 -102.78658328 106.81229724 -104.125 106.5 C-105.61119895 103.52760209 -105.25677009 100.80380422 -105.25 97.5 C-105.25257812 96.241875 -105.25515625 94.98375 -105.2578125 93.6875 C-105.125 90.5 -105.125 90.5 -104.125 88.5 C-103.17625 88.314375 -102.2275 88.12875 -101.25 87.9375 C-98.10903801 86.86375982 -98.10903801 86.86375982 -97.16796875 84.79296875 C-96.05310412 81.48414591 -95.26943974 78.13214675 -94.4921875 74.73046875 C-88.53936945 49.17440506 -72.88503732 28.00374616 -50.73828125 13.99511719 C-43.53758198 9.57318675 -36.23316059 5.98783427 -28.125 3.5 C-27.30064453 3.24250977 -26.47628906 2.98501953 -25.62695312 2.71972656 C-17.10896317 0.2979451 -8.79113869 -0.05804714 0 0 Z " fill="#E4636D" transform="translate(174.125,116.5)"/>
<path d="M0 0 C1.53598817 1.31584655 3.05834006 2.64788511 4.5625 4 C5.17351562 4.51820313 5.78453125 5.03640625 6.4140625 5.5703125 C15.76255179 14.06505848 21.86241908 26.10688275 25.5625 38 C25.80742187 38.76957031 26.05234375 39.53914063 26.3046875 40.33203125 C30.99787629 58.68689972 27.22968592 78.38310594 18.484375 94.80859375 C15.59354543 99.60901603 12.30351531 103.83830827 8.5625 108 C8.04429687 108.61101562 7.52609375 109.22203125 6.9921875 109.8515625 C-4.93911122 122.98198672 -23.10185813 130.30066957 -40.52734375 131.25390625 C-60.58673314 131.97838896 -78.63169469 126.67196802 -93.98046875 113.30078125 C-108.43157434 99.76866488 -117.48104414 82.14229013 -118.66015625 62.2421875 C-119.33599351 40.65484088 -111.77922716 21.21100575 -97.015625 5.41796875 C-70.42059575 -19.52494505 -28.97100316 -22.51361089 0 0 Z " fill="#ADE3A3" transform="translate(452.4375,263)"/>
<path d="M0 0 C9.35933054 7.35822646 15.81687717 19.03726365 18.00390625 30.62890625 C19.62918814 46.10913768 16.83825527 60.22743349 7.00390625 72.62890625 C-1.89492684 82.39140425 -13.6841313 89.19548358 -27.0390625 89.96484375 C-42.84410171 90.30830848 -55.89701747 86.08419018 -67.99609375 75.62890625 C-79.01032412 62.60463011 -83.21128531 49.60361342 -81.99609375 32.62890625 C-79.56484517 18.07940301 -71.89271038 6.53115299 -60.12109375 -2.24609375 C-41.18689207 -14.77043308 -18.21277324 -12.51014365 0 0 Z " fill="#010100" transform="translate(308.99609375,390.37109375)"/>
<path d="M0 0 C9.85363041 7.2368238 18.08506408 16.8456281 20.1875 29.25 C20.99906424 43.96401254 18.09472297 55.62315456 9.44140625 67.68359375 C2.87145673 74.93173161 -6.85652159 79.1296384 -16.0625 82 C-20.01714687 82.89186798 -20.01714687 82.89186798 -21.8125 86.25 C-22.0290625 87.735 -22.0290625 87.735 -22.25 89.25 C-23.8125 92.25 -23.8125 92.25 -26.2109375 93.3046875 C-30.73817855 94.57911192 -35.08245692 95.66564526 -39.8125 95.25 C-40.225 94.59 -40.6375 93.93 -41.0625 93.25 C-42.76469129 90.85206896 -42.76469129 90.85206896 -46.36328125 90.84375 C-54.02362743 91.01510186 -61.43913781 93.64050754 -68.75 95.75 C-71.02202033 96.39488925 -73.29492637 97.03650117 -75.5684967 97.67590332 C-76.97522802 98.0726519 -78.38090732 98.47315406 -79.78538513 98.87780762 C-84.59438565 100.25 -84.59438565 100.25 -86.8125 100.25 C-85.7779309 94.3247406 -84.37855101 88.62511339 -82.625 82.875 C-80.25128534 75.0638122 -78.2606457 67.17702859 -76.3125 59.25 C-73.74329303 48.8240013 -70.99607724 38.50421883 -67.8125 28.25 C-67.56113281 27.36828125 -67.30976562 26.4865625 -67.05078125 25.578125 C-63.33332453 13.1149753 -55.66124545 3.87113654 -44.40234375 -2.4609375 C-30.14772701 -9.55599561 -13.50770315 -8.4654441 0 0 Z " fill="#FDDE7C" transform="translate(102.8125,395.75)"/>
<path d="M0 0 C1.53598817 1.31584655 3.05834006 2.64788511 4.5625 4 C5.17351562 4.51820313 5.78453125 5.03640625 6.4140625 5.5703125 C15.76255179 14.06505848 21.86241908 26.10688275 25.5625 38 C25.80742187 38.76957031 26.05234375 39.53914063 26.3046875 40.33203125 C30.99787629 58.68689972 27.22968592 78.38310594 18.484375 94.80859375 C15.59354543 99.60901603 12.30351531 103.83830827 8.5625 108 C8.04429687 108.61101562 7.52609375 109.22203125 6.9921875 109.8515625 C-4.93911122 122.98198672 -23.10185813 130.30066957 -40.52734375 131.25390625 C-60.58673314 131.97838896 -78.63169469 126.67196802 -93.98046875 113.30078125 C-108.43157434 99.76866488 -117.48104414 82.14229013 -118.66015625 62.2421875 C-119.33599351 40.65484088 -111.77922716 21.21100575 -97.015625 5.41796875 C-70.42059575 -19.52494505 -28.97100316 -22.51361089 0 0 Z M-70.4375 6 C-71.34757812 6.48082031 -72.25765625 6.96164062 -73.1953125 7.45703125 C-87.5677049 15.58708605 -96.86248703 27.91245614 -101.5546875 43.77734375 C-102.6001322 48.16191611 -102.74520389 52.38275217 -102.6875 56.875 C-102.67783203 57.67019043 -102.66816406 58.46538086 -102.65820312 59.28466797 C-102.35728409 73.99659953 -97.21396151 88.22263054 -86.7734375 98.97265625 C-71.6077628 112.13483881 -56.96623352 116.13068364 -37.24414062 115.23828125 C-23.95119067 114.10972182 -11.40311064 106.98344212 -2.34765625 97.3515625 C8.800104 83.62773495 13.62284868 68.54576974 12.5625 51 C10.25556563 34.63981403 1.62517305 21.64289555 -10.65234375 11.09765625 C-26.98496516 -0.8552678 -52.58685733 -3.63327883 -70.4375 6 Z " fill="#010101" transform="translate(452.4375,263)"/>
<path d="M0 0 C3.72151419 1.19620099 5.45215509 3.47079725 7.234375 6.88671875 C9.58994499 13.38857265 8.32117318 20.21488901 5.56640625 26.38671875 C2.62113068 31.30040791 -1.3933826 35.2731045 -5.38330078 39.33886719 C-8.24604212 42.28028852 -11.02071032 45.30395163 -13.8125 48.3125 C-15.00590915 49.59040553 -16.19992478 50.86774493 -17.39453125 52.14453125 C-21.50698296 56.54144328 -25.61537222 60.9421416 -29.72070312 65.34570312 C-32.7923996 68.63953358 -35.87036871 71.92721652 -38.95703125 75.20703125 C-39.92479492 76.23763672 -39.92479492 76.23763672 -40.91210938 77.2890625 C-42.15501846 78.61244771 -43.39973861 79.93413491 -44.64648438 81.25390625 C-48.81575377 85.414922 -48.81575377 85.414922 -50.125 90.875 C-50.19034341 93.85158069 -50.19034341 93.85158069 -49.22265625 95.83203125 C-49 98 -49 98 -50.73828125 100.83203125 C-53.41402968 103.93005257 -55.74377671 106.51801458 -59 109 C-61.4375 109.03515625 -61.4375 109.03515625 -63.8125 108.375 C-66.30657139 107.63623622 -66.30657139 107.63623622 -69 108 C-74.09089343 111.36011452 -78.0456764 116.4182225 -82 121 C-82.70511719 121.79277344 -83.41023437 122.58554688 -84.13671875 123.40234375 C-85.25598144 124.67251826 -86.36496893 125.95185997 -87.4609375 127.2421875 C-89.60655063 129.69276087 -91.93125414 131.94138769 -94.25390625 134.22265625 C-96.06477643 136.06593574 -97.75321354 137.97822799 -99.4375 139.9375 C-102.47679651 143.46634763 -105.71016847 146.73005027 -109.02734375 149.99609375 C-111.57337829 152.58246151 -113.92021557 155.3153528 -116.28515625 158.06640625 C-118.5004738 160.56431556 -120.8689817 162.88024989 -123.25 165.21875 C-125.08242487 167.08389674 -126.79353135 169.01927746 -128.5 171 C-131.28239332 174.22956367 -134.21019429 177.23322653 -137.25 180.21875 C-139.08242487 182.08389674 -140.79353135 184.01927746 -142.5 186 C-145.28239332 189.22956367 -148.21019429 192.23322653 -151.25 195.21875 C-153.08242487 197.08389674 -154.79353135 199.01927746 -156.5 201 C-158.7455794 203.60647609 -161.04551512 206.08934521 -163.5 208.5 C-165.93389732 210.89053167 -168.21355559 213.35046262 -170.4375 215.9375 C-173.47679651 219.46634763 -176.71016847 222.73005027 -180.02734375 225.99609375 C-182.57337829 228.58246151 -184.92021557 231.3153528 -187.28515625 234.06640625 C-189.5004738 236.56431556 -191.8689817 238.88024989 -194.25 241.21875 C-196.08242487 243.08389674 -197.79353135 245.01927746 -199.5 247 C-202.28239332 250.22956367 -205.21019429 253.23322653 -208.25 256.21875 C-210.08242487 258.08389674 -211.79353135 260.01927746 -213.5 262 C-216.28239332 265.22956367 -219.21019429 268.23322653 -222.25 271.21875 C-224.08242487 273.08389674 -225.79353135 275.01927746 -227.5 277 C-229.7455794 279.60647609 -232.04551512 282.08934521 -234.5 284.5 C-236.93389732 286.89053167 -239.21355559 289.35046262 -241.4375 291.9375 C-244.47679651 295.46634763 -247.71016847 298.73005027 -251.02734375 301.99609375 C-253.57337829 304.58246151 -255.92021557 307.3153528 -258.28515625 310.06640625 C-260.49681322 312.56018803 -262.86105737 314.87254398 -265.23828125 317.20703125 C-267.75425761 319.7676369 -270.0786081 322.48124025 -272.421875 325.19921875 C-274.19649815 327.2242219 -276.05776935 329.13545857 -278 331 C-281.21524305 329.59155282 -283.32183868 327.89655214 -285.75 325.375 C-286.36359375 324.74335938 -286.9771875 324.11171875 -287.609375 323.4609375 C-288.06828125 322.97882813 -288.5271875 322.49671875 -289 322 C-284.98548805 316.20126052 -280.48164264 311.35217244 -275.46704102 306.43579102 C-271.99273836 303.02205208 -268.73343134 299.50293995 -265.57421875 295.79296875 C-263.41419977 293.33279825 -261.08069726 291.07035076 -258.74609375 288.77734375 C-256.93522357 286.93406426 -255.24678646 285.02177201 -253.5625 283.0625 C-250.59394444 279.61578784 -247.45920896 276.40889141 -244.1875 273.25 C-242.28973453 271.29801266 -240.50268548 269.30483681 -238.71875 267.25 C-235.08286605 263.0648655 -231.31369505 259.02287304 -227.5 255 C-226.08579329 253.50274037 -224.67173428 252.00534121 -223.2578125 250.5078125 C-222.54786133 249.75661133 -221.83791016 249.00541016 -221.10644531 248.23144531 C-217.85469478 244.78673045 -214.61407624 241.33162931 -211.375 237.875 C-210.45086304 236.88898804 -210.45086304 236.88898804 -209.50805664 235.88305664 C-202.9952167 228.93151468 -196.49688447 221.96645038 -190 215 C-187.68773462 212.52061436 -185.37526837 210.04141646 -183.0625 207.5625 C-182.48894775 206.94769775 -181.91539551 206.33289551 -181.32446289 205.69946289 C-177.01622863 201.08354054 -172.6965335 196.47846841 -168.375 191.875 C-163.91557616 187.12405101 -159.47379252 182.35816654 -155.0625 177.5625 C-149.77413353 171.81458777 -144.42489842 166.12534308 -139.06713867 160.44213867 C-132.92715169 153.92803848 -126.81649832 147.38700689 -120.71337891 140.83837891 C-117.83077072 137.7454693 -114.94684319 134.65379158 -112.0625 131.5625 C-111.48886719 130.94761719 -110.91523438 130.33273438 -110.32421875 129.69921875 C-106.01608437 125.08336049 -101.69645477 120.47838454 -97.375 115.875 C-92.91557616 111.12405101 -88.47379252 106.35816654 -84.0625 101.5625 C-78.77413353 95.81458777 -73.42489842 90.12534308 -68.06713867 84.44213867 C-61.92715169 77.92803848 -55.81649832 71.38700689 -49.71337891 64.83837891 C-46.83077071 61.74546929 -43.94682873 58.65380509 -41.0625 55.5625 C-40.20313843 54.64126343 -40.20313843 54.64126343 -39.32641602 53.70141602 C-35.63749463 49.74874268 -31.94054268 45.80373562 -28.23779297 41.86401367 C-26.3395462 39.84131933 -24.44702866 37.81337436 -22.5546875 35.78515625 C-20.33655508 33.41114538 -18.09567293 31.06523872 -15.8203125 28.74609375 C-7.67223852 20.34600359 -2.22687853 11.57976838 0 0 Z " fill="#5C525F" transform="translate(489,19)"/>
<path d="M0 0 C6.04265914 5.00255879 11.56098043 10.43177324 17.08984375 15.9921875 C18.04368954 16.94790248 18.99775941 17.90339388 19.95204163 18.8586731 C22.44153194 21.35194916 24.92800224 23.84821525 27.41381836 26.34515381 C29.95957994 28.90121509 32.50823777 31.45438505 35.05664062 34.0078125 C40.04057069 39.00241019 45.02131048 44.00017799 50 49 C49.58858261 49.47993408 49.17716522 49.95986816 48.75328064 50.4543457 C48.21328934 51.08429443 47.67329803 51.71424316 47.11694336 52.36328125 C46.58177597 52.98759033 46.04660858 53.61189941 45.495224 54.25512695 C44.37245908 55.56535354 43.2504859 56.87625866 42.12890625 58.1875 C38.76691786 62.07768108 35.28515409 65.76122935 31.60546875 69.3515625 C29.79366904 71.14851166 29.79366904 71.14851166 27.6875 74 C20.55981315 82.6501054 9.21837205 88.07321528 -1.7421875 89.48046875 C-11.39269673 89.84556981 -19.67315947 88.18100127 -27.37890625 82.1328125 C-35.45271531 74.49020135 -39.01380226 66.29061102 -39.375 55.25 C-39.14734851 42.59525521 -33.65445931 31.47119294 -24.66796875 22.6171875 C-21.49501739 19.60125933 -18.24636639 16.67373708 -14.97509766 13.76513672 C-11.79905672 10.92672189 -8.68451581 8.02252012 -5.5625 5.125 C-3.70955001 3.41534127 -1.85473014 1.70772792 0 0 Z " fill="#ECF3F4" transform="translate(150,312)"/>
<path d="M0 0 C7.07509818 5.52778956 12.29773768 13.0631228 14 22 C14.95416906 32.52714389 13.01644569 41.18468716 6.8125 49.8125 C0.41067605 57.44281895 -7.96585058 62.22795921 -17.8828125 63.31640625 C-29.28026046 63.76822324 -38.17118818 59.5004849 -46.5625 51.9375 C-53.82157481 44.25901198 -55.77326193 36.00702352 -55.66210938 25.71044922 C-55.18199919 16.04518012 -51.102551 7.97326688 -43.92578125 1.46484375 C-30.82539251 -8.49995499 -13.614189 -9.49544031 0 0 Z " fill="#FDDE7C" transform="translate(298,402)"/>
<path d="M0 0 C0.64582031 0.350625 1.29164063 0.70125 1.95703125 1.0625 C9.32370334 5.68472563 13.39323556 13.28462289 15.53125 21.53125 C17.31373081 30.91898228 15.33491214 39.51589731 10.4375 47.6875 C6.17344463 53.66990605 0.40747526 57.49284748 -6.25 60.4375 C-17.13126837 62.06969025 -27.02803095 61.96768165 -36.21484375 55.421875 C-44.48694408 48.58237305 -48.4829506 41.72674751 -50 31 C-50.35003885 20.59684532 -46.96922929 12.36039209 -39.92578125 4.7890625 C-28.81269128 -5.53506571 -13.3082449 -7.2633868 0 0 Z " fill="#000000" transform="translate(317,31)"/>
<path d="M0 0 C7.8203496 6.19825121 13.29555124 13.94375232 15 24 C15.81156424 38.71401254 12.90722297 50.37315456 4.25390625 62.43359375 C-2.31604327 69.68173161 -12.04402159 73.8796384 -21.25 76.75 C-25.20464687 77.64186798 -25.20464687 77.64186798 -27 81 C-27.2165625 82.485 -27.2165625 82.485 -27.4375 84 C-29 87 -29 87 -31.3984375 88.0546875 C-35.92567855 89.32911192 -40.26995692 90.41564526 -45 90 C-45.4125 89.34 -45.825 88.68 -46.25 88 C-47.95219129 85.60206896 -47.95219129 85.60206896 -51.55078125 85.59375 C-59.21112743 85.76510186 -66.62663781 88.39050754 -73.9375 90.5 C-76.20952033 91.14488925 -78.48242637 91.78650117 -80.7559967 92.42590332 C-82.16272802 92.8226519 -83.56840732 93.22315406 -84.97288513 93.62780762 C-89.78188565 95 -89.78188565 95 -92 95 C-91.734759 93.56145763 -91.46233523 92.12424025 -91.1875 90.6875 C-91.03667969 89.88699219 -90.88585937 89.08648437 -90.73046875 88.26171875 C-89.6556052 83.46219432 -88.31943019 78.73726287 -87 74 C-85.79577393 73.68772461 -84.59154785 73.37544922 -83.35083008 73.05371094 C-78.82304514 71.87875105 -74.29627296 70.69992832 -69.76977539 69.52001953 C-67.82180144 69.01280333 -65.87356525 68.50659306 -63.92504883 68.00146484 C-30.82542909 60.30843365 -30.82542909 60.30843365 -6.5390625 37.7578125 C0.45579749 25.22387556 0.65206177 14.01631864 0 0 Z " fill="#FCCE63" transform="translate(108,401)"/>
<path d="M0 0 C13.07231939 -1.02527995 25.81718597 4.9303628 35.7734375 13.0390625 C47.59948937 23.45428713 54.91546796 37.42859341 56.27734375 53.21484375 C56.50518886 60.87955314 55.31880333 67.71233239 53 75 C52.73316406 75.85335937 52.46632813 76.70671875 52.19140625 77.5859375 C47.47741477 90.86891793 37.42626082 101.89104083 25 108.375 C16.53704576 112.27597763 9.34858148 114.45235072 0 114 C2.42050375 112.04299697 4.84316918 110.11424762 7.359375 108.28125 C20.51247476 98.48090116 29.10940617 84.1798417 32 68 C33.80679428 48.54822201 29.81137762 30.79614476 17.75 15.125 C13.76548951 10.48211945 9.34039793 6.97852518 4.28515625 3.55859375 C2 2 2 2 0 0 Z " fill="#8BD2A5" transform="translate(409,264)"/>
<path d="M0 0 C6.20741149 0.53258856 11.73414673 1.55389723 17.625 3.5625 C18.78515625 3.95622803 18.78515625 3.95622803 19.96875 4.35791016 C44.45783652 13.00436427 63.00545562 30.17805981 75.375 52.75 C75.72143555 53.37624268 76.06787109 54.00248535 76.42480469 54.64770508 C78.41604354 58.40399643 79.95850258 61.7139095 80 66 C78.41015625 68.30859375 78.41015625 68.30859375 76.0625 70.4375 C74.82886719 71.57832031 74.82886719 71.57832031 73.5703125 72.7421875 C72.72210938 73.48726563 71.87390625 74.23234375 71 75 C70.21367187 75.70382813 69.42734375 76.40765625 68.6171875 77.1328125 C66.76124144 78.77589019 64.89101002 80.39753647 63 82 C61.04181717 78.54538925 60.22560076 75.10072356 59.3125 71.25 C54.30275295 51.62828973 44.24151313 35.24151313 30 21 C29.26007813 20.26007813 28.52015625 19.52015625 27.7578125 18.7578125 C19.70296505 11.17504402 9.96543543 5.68961667 0 1 C0 0.67 0 0.34 0 0 Z " fill="#D35360" transform="translate(187,117)"/>
<path d="M0 0 C1.08839774 0.88967344 2.17044608 1.78711574 3.25 2.6875 C3.85328125 3.18636719 4.4565625 3.68523437 5.078125 4.19921875 C7.3109424 6.2913505 9.13539658 8.57849069 11 11 C10.56244385 11.4626123 10.1248877 11.92522461 9.67407227 12.40185547 C7.63565499 14.55841469 5.59906972 16.71669598 3.5625 18.875 C2.82692871 19.65278809 2.09135742 20.43057617 1.33349609 21.23193359 C-2.49544673 25.2924214 -6.23954563 29.3913063 -9.875 33.625 C-18.03053526 42.6884156 -28.53720523 48.91344076 -40.7421875 50.48046875 C-49.27288946 50.80320492 -56.62514746 49.46008969 -64 45 C-64.66 44.01 -65.32 43.02 -66 42 C-64.83984375 41.91363281 -63.6796875 41.82726562 -62.484375 41.73828125 C-52.88367995 40.91839569 -44.61624382 39.62748344 -36 35 C-35.26136719 34.61457031 -34.52273437 34.22914063 -33.76171875 33.83203125 C-22.96935099 27.41974693 -13.97530895 16.54910325 -6 7 C-4.85524883 5.66573745 -3.70945184 4.3323713 -2.5625 3 C-1.716875 2.01 -0.87125 1.02 0 0 Z " fill="#DAE8ED" transform="translate(189,351)"/>
<path d="M0 0 C4.75809924 2.82290216 8.33241349 6.03201449 10.84375 11.0546875 C11.40463092 17.05179885 11.30116843 21.92817052 7.84375 27.0546875 C3.53109991 32.04828234 0.46259589 33.84684259 -6.09375 34.3671875 C-10.9291504 34.20389068 -14.36251256 32.86942889 -17.82421875 29.3671875 C-22.48711074 24.05082608 -23.51202086 20.94246371 -23.4375 13.81640625 C-22.91911458 8.72614941 -20.32392292 6.10559313 -16.65625 2.8046875 C-11.3578567 -0.90418781 -6.26746686 -2.7476938 0 0 Z " fill="#7198D3" transform="translate(306.15625,42.9453125)"/>
<path d="M0 0 C9.45324683 1.59513046 17.12509107 6.46706122 23 14 C28.58318901 23.23587237 30.74152588 32.17362465 28.3515625 42.9140625 C24.89880946 53.39036447 18.69932173 60.7733337 9 66 C4.65349033 68.1059714 4.65349033 68.1059714 1.6875 67.625 C1.130625 67.41875 0.57375 67.2125 0 67 C0.77923828 66.30777344 0.77923828 66.30777344 1.57421875 65.6015625 C9.12372891 58.54046797 14.70828944 49.45734559 15.37109375 38.8984375 C15.72593628 25.79811305 13.28595801 14.85594009 4 5 C3.27941406 4.47535156 2.55882812 3.95070313 1.81640625 3.41015625 C1.21699219 2.94480469 0.61757813 2.47945313 0 2 C0 1.34 0 0.68 0 0 Z " fill="#F8CB61" transform="translate(283,396)"/>
<path d="M0 0 C6.8123041 -0.60824144 10.69006766 0.66728359 16 5 C20.4909008 9.95150601 21.29955627 12.92315503 21.21484375 19.46484375 C20.7080302 25.4452436 17.41903079 29.21225932 13 33 C8.70183035 35.43950169 4.81870938 35.16334608 0 35 C0 34.67 0 34.34 0 34 C0.9075 33.855625 1.815 33.71125 2.75 33.5625 C6.9071588 31.56386596 7.70283504 29.69525356 9.30859375 25.49609375 C11.31076421 18.26791904 9.96733931 11.77860081 7 5 C5.33045181 1.77595022 5.33045181 1.77595022 2.375 1.3125 C1.59125 1.209375 0.8075 1.10625 0 1 C0 0.67 0 0.34 0 0 Z " fill="#5780C2" transform="translate(296,42)"/>
</svg>
